<svg id="Layer_1" data-name="Layer 1" xmlns="http://www.w3.org/2000/svg" width="132" height="132" viewBox="0 0 132 132"><title>behance-icon</title><path d="M52.4,51.9c0,4.6-3.1,6.8-9.8,6.8H28.8V45.1H44.3C48.1,45.1,52.4,46.6,52.4,51.9Z" fill="none" stroke="#fff" stroke-miterlimit="10" stroke-width="0.25"/><path d="M45.8,69h-17V85.3H43.5c5.4,0,9.9-1.2,10.4-6.7S52.8,69,45.8,69Z"/><path d="M93.2,59.3c-9.3,0-10.3,9.8-10.3,9.8h20.7S102.5,59.3,93.2,59.3Z"/><path d="M52.4,51.9c0-5.3-4.3-6.8-8.1-6.8H28.8V58.8H42.6C49.3,58.8,52.4,56.5,52.4,51.9Z"/><path d="M0,0V132H132V0ZM79.1,37.8h26.6v6.4H79.1ZM66,84c-4.2,9.1-8.5,12.4-25.5,12.4H16V34l29.3.2c6.3,0,17,2.3,19,10.3s.1,16-6.4,18.6C64.4,65.3,70.3,74.9,66,84Zm25.5,3.9c8.1,1.2,11-3.9,11.9-5.4h12.1c-.7,9-11.8,15.2-19.7,15.2s-18-2-22.5-10.3-4.9-29.3,8.4-35.5,24.6-.9,29.5,4.8S116,71.6,116,77.1H82.8S83.4,86.6,91.5,87.9Z"/></svg>