<svg id="Layer_1" data-name="Layer 1" xmlns="http://www.w3.org/2000/svg" width="132" height="132" viewBox="0 0 132 132"><title>instagram-icon</title><rect id="background" y="0.3" width="131.7" height="131.75"/><path d="M84.6,112.6H47.2A27.8,27.8,0,0,1,19.4,84.8V47.4A27.8,27.8,0,0,1,47.2,19.6H84.6a27.8,27.8,0,0,1,27.8,27.8V84.8A27.8,27.8,0,0,1,84.6,112.6ZM47.2,29.1A18.3,18.3,0,0,0,28.9,47.4V84.8a18.3,18.3,0,0,0,18.3,18.3H84.6a18.3,18.3,0,0,0,18.3-18.3V47.4A18.3,18.3,0,0,0,84.6,29.1Z" fill="#fff"/><path d="M65.9,91.4A25.3,25.3,0,1,1,91.1,66.1,25.3,25.3,0,0,1,65.9,91.4Zm0-42.4A17.1,17.1,0,1,0,83,66.1,17.1,17.1,0,0,0,65.9,49Z" fill="#fff"/><circle cx="90.9" cy="41.1" r="3.8" fill="#fff"/></svg>